<svg width="80" height="80" viewBox="0 0 80 80" fill="none" xmlns="http://www.w3.org/2000/svg">
<g filter="url(#filter0_d_1491_821)">
<mask id="mask0_1491_821" style="mask-type:luminance" maskUnits="userSpaceOnUse" x="4" y="2" width="72" height="72">
<rect x="4" y="2" width="72" height="72" fill="white"/>
</mask>
<g mask="url(#mask0_1491_821)">
<rect width="108" height="108" transform="translate(-14 -16)" fill="white"/>
<path fill-rule="evenodd" clip-rule="evenodd" d="M30.8332 31.0004C29.5635 31.0004 28.3332 32.3584 28.3332 34.3337C28.3332 35.0101 28.4847 35.6422 28.746 36.1676L28.7465 36.1686C29.2224 37.1286 30.0023 37.6671 30.8332 37.6671C31.6647 37.6671 32.4433 37.1282 32.9197 36.1658M26.6666 34.3337C26.6666 31.8491 28.2797 29.3337 30.8332 29.3337C33.3868 29.3337 34.9999 31.8491 34.9999 34.3337C34.9999 35.1056 34.8539 35.8528 34.5833 36.5254C37.5021 38.3076 38.3391 41.7866 38.3391 45.1732V46.0066H37.5057H24.1707H23.3374V45.1732C23.3374 41.803 24.159 38.3217 27.0861 36.5373C26.8121 35.8607 26.6666 35.1087 26.6666 34.3337ZM27.953 37.9624C25.9809 39.1749 25.1529 41.5014 25.0227 44.3399H36.6537C36.5221 41.4934 35.685 39.1658 33.7203 37.9529C33.0048 38.7781 32.0117 39.3337 30.8332 39.3337C29.6601 39.3337 28.6687 38.7827 27.953 37.9624ZM32.9197 36.1657C33.1809 35.638 33.3332 35.0067 33.3332 34.3337C33.3332 32.3584 32.103 31.0004 30.8332 31.0004M47.5995 33.1195C49.104 35.1304 49.9834 37.8512 50.052 41.1239L52.7481 38.4654L53.9183 39.6521L49.7417 43.7705L49.1559 44.3481L48.5708 43.7698L44.4141 39.6614L45.5857 38.476L48.3874 41.2452C48.3389 38.2094 47.5326 35.8122 46.265 34.1179C44.7587 32.1044 42.5549 31.0166 39.9894 31.0249L39.984 29.3582C43.0652 29.3482 45.7706 30.6748 47.5995 33.1195ZM49.1666 47.6671C47.8968 47.6671 46.6666 49.025 46.6666 51.0004C46.6666 51.7932 46.8801 52.5287 47.2302 53.1037C47.7149 53.8972 48.4164 54.3337 49.1666 54.3337C49.9168 54.3337 50.6186 53.8971 51.1033 53.1037C51.4533 52.5289 51.6666 51.7934 51.6666 51.0004C51.6666 49.025 50.4363 47.6671 49.1666 47.6671ZM52.0052 54.6739C51.2936 55.4677 50.3158 56.0004 49.1666 56.0004C48.0178 56.0004 47.0406 55.4682 46.3292 54.675C44.5763 56.05 43.55 58.448 43.3665 61.0054H54.9769C54.7928 58.438 53.7593 56.0443 52.0052 54.6739ZM45.4428 53.254C45.1559 52.5652 44.9999 51.7952 44.9999 51.0004C44.9999 48.5158 46.613 46.0004 49.1666 46.0004C51.7201 46.0004 53.3332 48.5158 53.3332 51.0004C53.3332 51.7947 53.1776 52.5643 52.891 53.2529C55.4609 55.1608 56.6734 58.5892 56.6734 61.8387V62.6721H55.8401H42.5034H41.6701V61.8387C41.6701 58.6057 42.8719 55.1688 45.4428 53.254ZM30.8325 47.61L31.4182 48.1872L35.5849 52.2939L34.4149 53.4809L31.6026 50.7091C31.6509 53.752 32.4576 56.1671 33.7274 57.8781C35.2357 59.9104 37.4394 61.012 40.0003 61.0029L40.0062 62.6696C36.9204 62.6805 34.2158 61.3327 32.3891 58.8714C30.8866 56.847 30.0074 54.1131 29.9382 50.8365L27.2523 53.4902L26.0809 52.3046L30.2475 48.1879L30.8325 47.61Z" fill="black"/>
<rect x="-14" y="-16" width="108" height="40" fill="#EB0000"/>
<path fill-rule="evenodd" clip-rule="evenodd" d="M33.9901 19.4615H37.4863L32.7816 14.6731H38.6207V19.4615H41.3802V14.6731H47.2197L42.5137 19.4615H46.0102L52 13.2405L46.0102 7H42.5137L47.2197 11.8079H41.3802V7H38.6207V11.8079H32.7816L37.4863 7H33.9901L28 13.2405L33.9901 19.4615Z" fill="white"/>
</g>
</g>
<defs>
<filter id="filter0_d_1491_821" x="0" y="0" width="80" height="80" filterUnits="userSpaceOnUse" color-interpolation-filters="sRGB">
<feFlood flood-opacity="0" result="BackgroundImageFix"/>
<feColorMatrix in="SourceAlpha" type="matrix" values="0 0 0 0 0 0 0 0 0 0 0 0 0 0 0 0 0 0 127 0" result="hardAlpha"/>
<feOffset dy="2"/>
<feGaussianBlur stdDeviation="2"/>
<feColorMatrix type="matrix" values="0 0 0 0 0 0 0 0 0 0 0 0 0 0 0 0 0 0 0.2 0"/>
<feBlend mode="normal" in2="BackgroundImageFix" result="effect1_dropShadow_1491_821"/>
<feBlend mode="normal" in="SourceGraphic" in2="effect1_dropShadow_1491_821" result="shape"/>
</filter>
</defs>
</svg>
