<svg width="72" height="72" viewBox="0 0 72 72" fill="none" xmlns="http://www.w3.org/2000/svg">
<g clip-path="url(#clip0_1491_824)">
<rect width="72" height="72" fill="white"/>
<mask id="mask0_1491_824" style="mask-type:luminance" maskUnits="userSpaceOnUse" x="0" y="0" width="72" height="72">
<rect width="72" height="72" fill="white"/>
</mask>
<g mask="url(#mask0_1491_824)">
<rect width="108" height="108" transform="translate(-18 -18)" fill="white"/>
<path fill-rule="evenodd" clip-rule="evenodd" d="M26.8332 29.0004C25.5635 29.0004 24.3332 30.3584 24.3332 32.3337C24.3332 33.0101 24.4847 33.6422 24.746 34.1676L24.7465 34.1686C25.2224 35.1286 26.0023 35.6671 26.8332 35.6671C27.6647 35.6671 28.4433 35.1282 28.9197 34.1658M22.6666 32.3337C22.6666 29.8491 24.2797 27.3337 26.8332 27.3337C29.3868 27.3337 30.9999 29.8491 30.9999 32.3337C30.9999 33.1056 30.8539 33.8528 30.5833 34.5254C33.5021 36.3076 34.3391 39.7866 34.3391 43.1732V44.0066H33.5057H20.1707H19.3374V43.1732C19.3374 39.803 20.159 36.3217 23.0861 34.5373C22.8121 33.8607 22.6666 33.1087 22.6666 32.3337ZM23.953 35.9624C21.9809 37.1749 21.1529 39.5014 21.0227 42.3399H32.6537C32.5221 39.4934 31.685 37.1658 29.7203 35.9529C29.0048 36.7781 28.0117 37.3337 26.8332 37.3337C25.6601 37.3337 24.6687 36.7827 23.953 35.9624ZM28.9197 34.1657C29.1809 33.638 29.3332 33.0067 29.3332 32.3337C29.3332 30.3584 28.103 29.0004 26.8332 29.0004M43.5995 31.1195C45.104 33.1304 45.9834 35.8512 46.052 39.1239L48.7481 36.4654L49.9183 37.6521L45.7417 41.7705L45.1559 42.3481L44.5708 41.7698L40.4141 37.6614L41.5857 36.476L44.3874 39.2452C44.3389 36.2094 43.5326 33.8122 42.265 32.1179C40.7587 30.1044 38.5549 29.0166 35.9894 29.0249L35.984 27.3582C39.0652 27.3482 41.7706 28.6748 43.5995 31.1195ZM45.1666 45.6671C43.8968 45.6671 42.6666 47.025 42.6666 49.0004C42.6666 49.7932 42.8801 50.5287 43.2302 51.1037C43.7149 51.8972 44.4164 52.3337 45.1666 52.3337C45.9168 52.3337 46.6186 51.8971 47.1033 51.1037C47.4533 50.5289 47.6666 49.7934 47.6666 49.0004C47.6666 47.025 46.4363 45.6671 45.1666 45.6671ZM48.0052 52.6739C47.2936 53.4677 46.3158 54.0004 45.1666 54.0004C44.0178 54.0004 43.0406 53.4682 42.3292 52.675C40.5763 54.05 39.55 56.448 39.3665 59.0054H50.9769C50.7928 56.438 49.7593 54.0443 48.0052 52.6739ZM41.4428 51.254C41.1559 50.5652 40.9999 49.7952 40.9999 49.0004C40.9999 46.5158 42.613 44.0004 45.1666 44.0004C47.7201 44.0004 49.3332 46.5158 49.3332 49.0004C49.3332 49.7947 49.1776 50.5643 48.891 51.2529C51.4609 53.1608 52.6734 56.5892 52.6734 59.8387V60.6721H51.8401H38.5034H37.6701V59.8387C37.6701 56.6057 38.8719 53.1688 41.4428 51.254ZM26.8325 45.61L27.4182 46.1872L31.5849 50.2939L30.4149 51.4809L27.6026 48.7091C27.6509 51.752 28.4576 54.1671 29.7274 55.8781C31.2357 57.9104 33.4394 59.012 36.0003 59.0029L36.0062 60.6696C32.9204 60.6805 30.2158 59.3327 28.3891 56.8714C26.8866 54.847 26.0074 52.1131 25.9382 48.8365L23.2523 51.4902L22.0809 50.3046L26.2475 46.1879L26.8325 45.61Z" fill="black"/>
<rect x="-18" y="-18" width="108" height="40" fill="#EB0000"/>
<path fill-rule="evenodd" clip-rule="evenodd" d="M29.9901 17.4615H33.4863L28.7816 12.6731H34.6207V17.4615H37.3802V12.6731H43.2197L38.5137 17.4615H42.0102L48 11.2405L42.0102 5H38.5137L43.2197 9.80787H37.3802V5H34.6207V9.80787H28.7816L33.4863 5H29.9901L24 11.2405L29.9901 17.4615Z" fill="white"/>
</g>
</g>
<defs>
<clipPath id="clip0_1491_824">
<rect width="72" height="72" fill="white"/>
</clipPath>
</defs>
</svg>
